<svg version="1.1" id="Layer_2_1_" xmlns="http://www.w3.org/2000/svg" x="0" y="0" viewBox="0 0 100 100" xml:space="preserve"><style type="text/css">.logo-react-native-st0{fill:#05a5d1}</style><path class="st0" d="M99.4 50c0-6.5-8.2-12.8-20.8-16.6 2.9-12.9 1.6-23.1-4.1-26.3C73.2 6.3 71.6 6 70 6v4.5c.9 0 1.6.2 2.3.5 2.8 1.5 4 7.6 3 15.3-.2 1.9-.6 3.9-1 5.9-4-.9-8.3-1.7-12.9-2.2-2.8-3.8-5.5-7.1-8.4-10.1 6.5-6.1 12.8-9.5 16.9-9.5V5.9c-5.5 0-12.9 4-20.2 10.8C42.6 9.9 35.4 6 29.8 6v4.5c4.2 0 10.4 3.4 16.9 9.4-2.9 3-5.6 6.3-8.4 10.1-4.6.5-8.9 1.2-12.9 2.2-.5-2-.8-4-1-5.8-.9-7.8.2-13.7 3-15.3.6-.4 1.4-.5 2.3-.5V6c-1.7 0-3.3.4-4.6 1.1-5.7 3.3-6.9 13.5-4 26.2C8.7 37.2.6 43.5.6 50s8.2 12.8 20.8 16.6c-2.9 12.9-1.6 23.1 4.1 26.3 1.3.8 2.9 1.1 4.5 1.1 5.5 0 12.9-4 20.2-10.8C57.5 90.1 64.7 94 70.4 94c1.7 0 3.3-.4 4.6-1.1 5.7-3.3 6.9-13.5 4-26.2C91.3 62.8 99.4 56.5 99.4 50zM73.2 36.5c-.7 2.7-1.6 5.3-2.8 8-.8-1.6-1.7-3.3-2.7-4.8-.9-1.6-1.9-3.2-2.9-4.7 3 .4 5.8.9 8.4 1.5zM64 58.1c-1.5 2.8-3.2 5.3-4.9 7.8-3 .3-6 .4-9.1.4s-6.1-.1-9.1-.4c-1.6-2.4-3.3-5-4.9-7.7-1.5-2.7-3-5.3-4.2-8.1 1.2-2.7 2.7-5.4 4.2-8.1 1.5-2.8 3.2-5.3 4.9-7.8 3-.3 6-.4 9.1-.4s6.1.1 9.1.4c1.6 2.4 3.3 5 4.9 7.7 1.5 2.7 3 5.3 4.2 8.1-1.3 2.7-2.7 5.4-4.2 8.1zm6.5-2.7c1.1 2.7 2 5.4 2.8 8.1-2.7.6-5.4 1.2-8.3 1.6 1-1.5 1.9-3.2 2.9-4.8.9-1.6 1.7-3.3 2.6-4.9zM50.1 76.9c-1.8-1.9-3.8-4.1-5.6-6.4 1.8.1 3.7.1 5.5.1 1.9 0 3.8 0 5.6-.1-1.9 2.4-3.7 4.5-5.5 6.4zm-15-11.8c-2.9-.4-5.6-.9-8.3-1.6.7-2.7 1.6-5.3 2.8-8 .8 1.6 1.7 3.3 2.7 4.8.8 1.6 1.7 3.3 2.8 4.8zm14.8-42c1.8 1.9 3.8 4.1 5.6 6.4-1.8-.1-3.7-.1-5.5-.1-1.9 0-3.8 0-5.6.1 1.8-2.4 3.7-4.5 5.5-6.4zM35.1 35c-1 1.5-1.9 3.2-2.9 4.8-.9 1.6-1.8 3.3-2.7 4.8-1.1-2.7-2-5.4-2.8-8.1 2.6-.6 5.4-1.1 8.4-1.5zM16.8 60.2C9.6 57.1 5.1 53.2 5.1 50s4.6-7.1 11.7-10.2c1.7-.7 3.7-1.4 5.6-2 1.1 4 2.7 8.1 4.5 12.2-1.8 4.2-3.4 8.3-4.5 12.2-2-.6-3.9-1.3-5.6-2zm10.8 28.9c-2.8-1.5-4-7.6-3-15.3.2-1.9.6-3.9 1-5.9 4 .9 8.3 1.7 12.9 2.2 2.8 3.8 5.5 7.1 8.4 10.1-6.5 6.1-12.8 9.5-16.9 9.5-1.1-.1-1.8-.3-2.4-.6zm47.9-15.4c.9 7.8-.2 13.7-3 15.3-.6.4-1.4.5-2.3.5-4.2 0-10.4-3.4-16.9-9.4 2.9-3 5.6-6.3 8.4-10.1 4.6-.5 8.9-1.2 12.9-2.2.2 2 .7 4 .9 5.9zm7.7-13.5c-1.7.7-3.7 1.4-5.6 2-1.1-4-2.7-8.1-4.5-12.2 1.8-4.2 3.4-8.3 4.5-12.2 2 .6 3.9 1.3 5.7 2C90.5 42.9 95 46.8 95 50c-.1 3.2-4.6 7.1-11.8 10.2zM29.7 6z"/><circle class="logo-react-native-st0" cx="49.9" cy="50" r="9.2"/></svg>