<svg xmlns="http://www.w3.org/2000/svg" viewBox="0 0 1150.99 618.82" fill="#fff">
	<path d="M438.38,103.6c0-2.43-.54-4.11-1.62-5a7,7,0,0,0-4.64-1.37V91.61a6.61,6.61,0,0,0,4.64-1.48,6,6,0,0,0,1.62-4.64V68.71A8.56,8.56,0,0,1,440.26,63c1.24-1.48,3.14-2.23,5.68-2.23h7.2v5.62h-4q-4.1,0-4.1,4.5V87.15A6.45,6.45,0,0,1,443.32,92a7.17,7.17,0,0,1-3.86,2v.58a6.34,6.34,0,0,1,3.82,2.17,7,7,0,0,1,1.73,4.91v16.1a5,5,0,0,0,1,3.36,4.07,4.07,0,0,0,3.2,1.12h4v5.61h-7.2a7.53,7.53,0,0,1-5.54-2,7.88,7.88,0,0,1-2-5.81Z"/>
	<path d="M474.38,85.13q0,3.68,1.66,5a7.15,7.15,0,0,0,4.68,1.37v5.61A6.8,6.8,0,0,0,476,98.62a5.86,5.86,0,0,0-1.66,4.62v16.7a8.39,8.39,0,0,1-1.9,5.66q-1.92,2.22-5.8,2.22h-7v-5.61h4q4.09,0,4.1-4.48V101.56a6.34,6.34,0,0,1,1.69-4.8,7.19,7.19,0,0,1,3.78-2V94.2A6.24,6.24,0,0,1,469.45,92a7.1,7.1,0,0,1-1.69-4.93V70.91q0-4.5-4.18-4.5H459.7V60.79h7.05a7.6,7.6,0,0,1,5.58,2,7.8,7.8,0,0,1,2.05,5.83Z"/>
	<path d="M143,221.66v-2.73l30.17-17,3,5.18L157.8,217.49l-7.2,2.66,7.13,2.31,18.86,10.29-3,5Z"/>
	<path d="M205.68,192l5.33,2.45-28.73,58.89L177,250.75Z"/>
	<path d="M245,218.21v2.73l-30.24,16.92-2.95-5.18,18.43-10.37,7.2-2.66-7.13-2.31-18.86-10.29,2.88-5.11Z"/>
	<path d="M387,436.22a4.27,4.27,0,0,1,1.33-3.31,5.62,5.62,0,0,1,7,0,4.7,4.7,0,0,1,0,6.55,5.35,5.35,0,0,1-7,0A4.31,4.31,0,0,1,387,436.22Zm0,28.37a4.27,4.27,0,0,1,1.33-3.31,5.62,5.62,0,0,1,7,0,4.7,4.7,0,0,1,0,6.55,5.35,5.35,0,0,1-7,0A4.31,4.31,0,0,1,387,464.59Z"/>
	<path d="M426.89,417l5.32,2.45-28.72,58.89-5.26-2.59Z"/>
	<path d="M455.4,417l5.33,2.45L432,478.34l-5.26-2.59Z"/>
	<path d="M0,19.22a4.27,4.27,0,0,1,1.33-3.31,5,5,0,0,1,3.49-1.22,5,5,0,0,1,3.5,1.22,4.31,4.31,0,0,1,1.33,3.31,4.35,4.35,0,0,1-1.33,3.24,4.8,4.8,0,0,1-3.5,1.3,4.77,4.77,0,0,1-3.49-1.3A4.31,4.31,0,0,1,0,19.22ZM0,47.59a4.27,4.27,0,0,1,1.33-3.31,4.94,4.94,0,0,1,3.49-1.22,5,5,0,0,1,3.5,1.22,4.7,4.7,0,0,1,0,6.55,4.8,4.8,0,0,1-3.5,1.3,4.77,4.77,0,0,1-3.49-1.3A4.31,4.31,0,0,1,0,47.59Z"/>
	<path d="M39.89,0l5.32,2.45L16.49,61.34l-5.26-2.59Z"/>
	<path d="M68.4,0l5.33,2.45L45,61.34l-5.26-2.59Z"/>
	<path d="M1049,275.66v-2.73l30.17-17,3,5.18-18.43,10.37-7.2,2.66,7.13,2.31,18.86,10.29-2.95,5Z"/>
	<path d="M1111.68,246l5.33,2.45-28.73,58.89-5.26-2.59Z"/>
	<path d="M1151,272.21v2.73l-30.24,16.92-3-5.18,18.43-10.37,7.2-2.66-7.13-2.31-18.86-10.29,2.88-5.11Z"/>
	<path d="M240.38,594.6c0-2.43-.54-4.11-1.62-5a7,7,0,0,0-4.64-1.37v-5.61a6.61,6.61,0,0,0,4.64-1.48,6,6,0,0,0,1.62-4.64V559.71a8.56,8.56,0,0,1,1.88-5.69c1.24-1.48,3.14-2.23,5.68-2.23h7.2v5.62h-4q-4.1,0-4.1,4.5v16.24a6.45,6.45,0,0,1-1.69,4.83,7.17,7.17,0,0,1-3.86,2v.58a6.34,6.34,0,0,1,3.82,2.17,7,7,0,0,1,1.73,4.91v16.1a5,5,0,0,0,1,3.36,4.07,4.07,0,0,0,3.2,1.12h4v5.61h-7.2a7.53,7.53,0,0,1-5.54-2,7.88,7.88,0,0,1-2-5.81Z"/>
	<path d="M276.38,576.13q0,3.68,1.66,5a7.15,7.15,0,0,0,4.68,1.37v5.61a6.8,6.8,0,0,0-4.68,1.47,5.86,5.86,0,0,0-1.66,4.62v16.7a8.39,8.39,0,0,1-1.9,5.66q-1.92,2.22-5.8,2.22h-7v-5.61h4c2.73,0,4.1-1.5,4.1-4.48V592.56a6.34,6.34,0,0,1,1.69-4.8,7.19,7.19,0,0,1,3.78-2v-.57a6.24,6.24,0,0,1-3.78-2.18,7.1,7.1,0,0,1-1.69-4.93V561.91q0-4.5-4.18-4.5H261.7v-5.62h7.05a7.6,7.6,0,0,1,5.58,2,7.8,7.8,0,0,1,2.05,5.83Z"/>
</svg>