<svg xmlns="http://www.w3.org/2000/svg" viewBox="0 0 1223.74 708.26" fill="#fff">
	<path d="M793.8,378.45c0-3.86-.85-6.5-2.56-7.94s-4.17-2.16-7.36-2.16v-8.89c3.19,0,5.65-.78,7.36-2.34s2.56-4,2.56-7.36V323.19a13.53,13.53,0,0,1,3-9q3-3.53,9-3.53h11.4v8.89h-6.39q-6.49,0-6.5,7.13V352.4q0,5.06-2.68,7.64a11.28,11.28,0,0,1-6.1,3.16v.92a10,10,0,0,1,6,3.43,11,11,0,0,1,2.73,7.77v25.51a8,8,0,0,0,1.54,5.32q1.54,1.77,5.08,1.77h6.27v8.9h-11.4q-5.6,0-8.78-3.18t-3.2-9.19Z"/>
	<path d="M850.82,349.19c0,3.88.88,6.54,2.62,8s4.22,2.17,7.42,2.17v8.9q-4.8,0-7.42,2.32c-1.74,1.56-2.62,4-2.62,7.33v26.44a13.32,13.32,0,0,1-3,9q-3,3.51-9.18,3.52H827.56v-8.9h6.27q6.49,0,6.5-7.09V375.22q0-5,2.68-7.61a11.35,11.35,0,0,1,6-3.14v-.91a9.85,9.85,0,0,1-6-3.45,11.25,11.25,0,0,1-2.68-7.82V326.67q0-7.12-6.61-7.13h-6.16v-8.89h11.17q5.6,0,8.84,3.19t3.25,9.24Z"/>
	<path d="M486.36,67.81q0-5.79-2.57-8t-7.36-2.16V48.81q4.8,0,7.36-2.34t2.57-7.35V12.54a13.5,13.5,0,0,1,3-9q3-3.54,9-3.54h11.4V8.9h-6.38q-6.51,0-6.5,7.12V41.75c0,3.38-.9,5.92-2.68,7.65a11.36,11.36,0,0,1-6.1,3.15v.92a10.09,10.09,0,0,1,6,3.43,11.06,11.06,0,0,1,2.74,7.78v25.5a7.89,7.89,0,0,0,1.54,5.32q1.53,1.78,5.07,1.78h6.27v8.89h-11.4c-3.73,0-6.65-1.06-8.78-3.18s-3.19-5.18-3.19-9.19Z"/>
	<path d="M543.37,38.55q0,5.81,2.63,8c1.75,1.44,4.22,2.17,7.41,2.17v8.89q-4.78,0-7.41,2.33t-2.63,7.32V93.69a13.22,13.22,0,0,1-3,9q-3,3.52-9.18,3.52H520.11V97.28h6.27q6.51,0,6.5-7.09V64.57c0-3.35.9-5.89,2.68-7.6a11.37,11.37,0,0,1,6-3.15v-.91a9.85,9.85,0,0,1-6-3.45,11.27,11.27,0,0,1-2.68-7.81V16q0-7.12-6.61-7.12h-6.16V0h11.18C535,0,538,1.07,540.12,3.19s3.25,5.21,3.25,9.24Z"/>
	<path d="M23.77,658.08v-4.33l47.78-26.91,4.79,8.21L47.15,651.47l-11.41,4.22L47,659.34l29.88,16.3-4.67,8Z"/>
	<path d="M123,611.1l8.44,3.88-45.5,93.28-8.33-4.11Z"/>
	<path d="M185.25,652.61v4.33l-47.9,26.8-4.67-8.21,29.19-16.42,11.4-4.22L162,651.24l-29.87-16.31,4.56-8.09Z"/>
	<path d="M1107,434.65a6.76,6.76,0,0,1,2.11-5.25,8.85,8.85,0,0,1,11.06,0,6.76,6.76,0,0,1,2.11,5.25,6.86,6.86,0,0,1-2.11,5.13,8.48,8.48,0,0,1-11.06,0A6.86,6.86,0,0,1,1107,434.65Zm0,44.93a6.76,6.76,0,0,1,2.11-5.25,8.85,8.85,0,0,1,11.06,0,6.76,6.76,0,0,1,2.11,5.25,6.86,6.86,0,0,1-2.11,5.13,8.48,8.48,0,0,1-11.06,0A6.86,6.86,0,0,1,1107,479.58Z"/>
	<path d="M1170.15,404.2l8.43,3.87-45.5,93.29-8.32-4.11Z"/>
	<path d="M1215.3,404.2l8.44,3.87-45.5,93.29-8.32-4.11Z"/>
	<path d="M955.14,131.84a6.82,6.82,0,0,1,2.11-5.25,8.9,8.9,0,0,1,11.07,0,7.44,7.44,0,0,1,0,10.38,8.5,8.5,0,0,1-11.07,0A6.89,6.89,0,0,1,955.14,131.84Zm0,44.93a6.79,6.79,0,0,1,2.11-5.24,8.87,8.87,0,0,1,11.07,0,6.79,6.79,0,0,1,2.11,5.24,6.88,6.88,0,0,1-2.11,5.13,8.47,8.47,0,0,1-11.07,0A6.88,6.88,0,0,1,955.14,176.77Z"/>
	<path d="M1018.32,101.39l8.44,3.88-45.5,93.28-8.33-4.1Z"/>
	<path d="M1063.48,101.39l8.44,3.88-45.5,93.28-8.33-4.1Z"/>
	<path d="M0,368.16a6.79,6.79,0,0,1,2.11-5.25A7.86,7.86,0,0,1,7.64,361a7.86,7.86,0,0,1,5.53,1.93,7.44,7.44,0,0,1,0,10.38,7.6,7.6,0,0,1-5.53,2.06,7.6,7.6,0,0,1-5.53-2.06A6.86,6.86,0,0,1,0,368.16Zm0,44.93a6.75,6.75,0,0,1,2.11-5.24,7.87,7.87,0,0,1,5.53-1.94,7.87,7.87,0,0,1,5.53,1.94,6.75,6.75,0,0,1,2.11,5.24,6.86,6.86,0,0,1-2.11,5.14,7.63,7.63,0,0,1-5.53,2,7.63,7.63,0,0,1-5.53-2A6.86,6.86,0,0,1,0,413.09Z"/>
	<path d="M63.18,337.71l8.44,3.88L26.11,434.87l-8.32-4.1Z"/>
	<path d="M108.34,337.71l8.43,3.88-45.5,93.28L63,430.77Z"/>
	<path d="M789.57,626.33V622l47.78-26.91,4.79,8.21L813,619.72l-11.4,4.22,11.29,3.65,29.87,16.31-4.67,8Z"/>
	<path d="M888.79,579.35l8.43,3.88-45.5,93.28-8.32-4.1Z"/>
	<path d="M951.05,620.86v4.33L903.15,652l-4.67-8.21,29.19-16.42,11.41-4.22-11.29-3.65-29.88-16.3,4.56-8.1Z"/>
	<path d="M222.54,355.35c0-3.86-.85-6.5-2.56-7.94s-4.16-2.16-7.36-2.16v-8.89q4.8,0,7.36-2.34t2.56-7.36V300.09a13.53,13.53,0,0,1,3-9q3-3.52,9-3.53h11.4v8.89h-6.38q-6.51,0-6.5,7.13V329.3c0,3.37-.9,5.92-2.68,7.64a11.3,11.3,0,0,1-6.11,3.16V341a10.06,10.06,0,0,1,6.05,3.43,11,11,0,0,1,2.74,7.78v25.5a7.91,7.91,0,0,0,1.54,5.32q1.53,1.77,5.07,1.77h6.27v8.9h-11.4c-3.73,0-6.65-1.06-8.78-3.18s-3.2-5.18-3.2-9.19Z"/>
	<path d="M279.56,326.09q0,5.82,2.63,8c1.74,1.45,4.22,2.17,7.41,2.17v8.9c-3.19,0-5.67.77-7.41,2.32s-2.63,4-2.63,7.33v26.44a13.27,13.27,0,0,1-3,9q-3,3.51-9.18,3.52H256.3v-8.9h6.27q6.51,0,6.5-7.09V352.12c0-3.35.89-5.89,2.68-7.6a11.3,11.3,0,0,1,6-3.15v-.91a9.85,9.85,0,0,1-6-3.45,11.25,11.25,0,0,1-2.68-7.82V303.57q0-7.12-6.61-7.13H256.3v-8.89h11.18q5.58,0,8.83,3.19t3.25,9.24Z"/>
</svg>